# xmcd
#
# Track frame offsets: 
#        150
#        12511
#        23246
#        36399
#        49894
#        63456
#        76413
#        87381
#        101720
#        138760
#        164266
#        187812
#        196241
#        211343
#        224067
#        234192
#        249636
#        263733
#        278223
#        289360
#        302426
#
# Disc length: 4358 seconds
#
# Revision: 1
# Processed by: cddbd v1.5.2PL0 Copyright (c) Steve Scherf et al.
# Submitted via: ExactAudioCopyFreeDBPlugin 1.0
#
DISCID=31110415
DTITLE=Various Artist - Rural Blues Vol. 2 (1951-1962)
DYEAR=1998
DGENRE=Blues
TTITLE0=Sam "Suitcase" Johnson - Sam's Comin' Home
TTITLE1=Sam "Suitcase" Johnson - Sam's Boogie
TTITLE2=Bobo Thomas - Catfish Blues (I Wish I Was a Catfish)
TTITLE3=Clifford Gibson - Sneaky Groundhog
TTITLE4=Clifford Gibson - Let Me Be Your Handy Man
TTITLE5=Juke Boy Bonner - Rock with Me Baby
TTITLE6=Juke Boy Bonner - Well Baby
TTITLE7=Joel Hopkins - Good Times Here, Better Down the Road
TTITLE8=Joel Hopkins - Thunder in Germany
TTITLE9=Joel Hopkins - I Ain't Gonna Roll for the Big Hat Man No More
TTITLE10=Joel Hopkins - Accused Me of Forgin' Can't Even Write My Name
TTITLE11=Joel Hopkins - Matchbox Blues
TTITLE12=Jewell Long - Frankie and Albert
TTITLE13=Jewell Long - My Pony Run Blues
TTITLE14=Jewell Long - Sealy Rag
TTITLE15=Jewell Long - Muddy Shoes Blues
TTITLE16=Clifford Gibson - It's Best to Know Who You're Talking To
TTITLE17=Clifford Gibson - I Don't Want No Woman
TTITLE18=Clifford Gibson - The Monkey Likes to Boogie
TTITLE19=Clifford Gibson - No Success Blues
TTITLE20=Arthur "Big Boy" Crudup - Angel Child
EXTD=
EXTT0=
EXTT1=
EXTT2=
EXTT3=
EXTT4=
EXTT5=
EXTT6=
EXTT7=
EXTT8=
EXTT9=
EXTT10=
EXTT11=
EXTT12=
EXTT13=
EXTT14=
EXTT15=
EXTT16=
EXTT17=
EXTT18=
EXTT19=
EXTT20=
PLAYORDER=
